<svg xmlns="http://www.w3.org/2000/svg" xmlns:xlink="http://www.w3.org/1999/xlink" x="0px" y="0px"
	 width="201.473px" height="65.833px" viewBox="0 0 201.473 65.833" enable-background="new 0 0 201.473 65.833"
	 xml:space="preserve">
<g>
	<path fill="#FFFFFF" d="M37.221,18.083h-8.636l-1.836,5.474h-4.794l8.194-22.44h5.61l8.194,22.44h-4.862L37.221,18.083z
		 M36.065,14.615l-2.108-6.324l-1.02-3.4h-0.068l-0.952,3.332l-2.176,6.392H36.065z"/>
	<path fill="#FFFFFF" d="M70.882,1.814c1.496,0.692,2.81,1.785,3.944,3.281l-3.23,3.162c-0.59-1.224-1.372-2.136-2.346-2.737
		c-0.975-0.6-2.21-0.901-3.706-0.901c-1.36,0-2.409,0.255-3.145,0.765c-0.737,0.51-1.105,1.185-1.105,2.023
		c0,0.771,0.374,1.383,1.122,1.836c0.748,0.454,2.096,0.85,4.046,1.19c2.04,0.386,3.661,0.862,4.862,1.428
		c1.201,0.566,2.079,1.275,2.635,2.125c0.555,0.85,0.833,1.91,0.833,3.179c0,1.383-0.391,2.579-1.173,3.587
		c-0.782,1.009-1.87,1.785-3.264,2.329s-2.987,0.816-4.777,0.816c-2.471,0-4.494-0.345-6.069-1.037
		c-1.576-0.691-2.851-1.74-3.825-3.145l2.788-3.332c0.838,1.383,1.802,2.34,2.89,2.873c1.088,0.533,2.436,0.799,4.046,0.799
		c1.45,0,2.555-0.227,3.315-0.68c0.759-0.453,1.139-1.099,1.139-1.938c0-0.612-0.357-1.122-1.071-1.53
		c-0.714-0.408-1.989-0.793-3.825-1.156c-2.108-0.43-3.791-0.94-5.049-1.53c-1.258-0.589-2.17-1.314-2.737-2.176
		c-0.567-0.861-0.85-1.926-0.85-3.196c0-1.337,0.362-2.544,1.088-3.621c0.725-1.076,1.785-1.921,3.179-2.533
		c1.394-0.612,3.031-0.918,4.913-0.918C67.595,0.777,69.386,1.123,70.882,1.814z"/>
	<path fill="#FFFFFF" d="M97.265,13.289l-3.196,3.638v6.63h-4.692V1.117h4.692v10.642l9.214-10.642h5.44l-8.058,9.146l8.33,13.294
		h-5.372L97.265,13.289z"/>
	<path fill="#FFFFFF" d="M130.55,13.289l-3.195,3.638v6.63h-4.692V1.117h4.692v10.642l9.214-10.642h5.439l-8.058,9.146l8.33,13.294
		h-5.372L130.55,13.289z"/>
	<path fill="#FFFFFF" d="M168.698,18.083h-8.636l-1.836,5.474h-4.794l8.193-22.44h5.61l8.194,22.44h-4.862L168.698,18.083z
		 M167.542,14.615l-2.107-6.324l-1.021-3.4h-0.067l-0.952,3.332l-2.176,6.392H167.542z"/>
</g>
<g>
	<path fill="#FFFFFF" d="M8.079,40.187v7.92H6.423v-3.336H2.931v3.336H1.275v-7.92h1.656v3.252h3.492v-3.252H8.079z"/>
	<path fill="#FFFFFF" d="M19.443,46.175h-3.048l-0.648,1.932h-1.692l2.892-7.92h1.98l2.892,7.92h-1.716L19.443,46.175z
		 M19.035,44.951l-0.744-2.232l-0.36-1.199h-0.024l-0.336,1.176l-0.768,2.256H19.035z"/>
	<path fill="#FFFFFF" d="M34.599,48.107h-1.896l-2.772-4.656l-0.684-1.332h-0.012l0.048,1.404v4.584h-1.488v-7.92h1.884l2.772,4.643
		l0.684,1.346h0.024l-0.048-1.404v-4.584h1.488V48.107z"/>
	<path fill="#FFFFFF" d="M47.403,41.218c0.68,0.688,1.02,1.664,1.02,2.928s-0.34,2.24-1.02,2.928c-0.68,0.689-1.64,1.033-2.88,1.033
		h-3.06v-7.92h3.06C45.763,40.187,46.723,40.531,47.403,41.218z M46.137,46.109c0.38-0.453,0.57-1.105,0.57-1.963
		c0-0.855-0.19-1.51-0.57-1.961c-0.38-0.453-0.946-0.678-1.698-0.678h-1.32v5.279h1.32C45.191,46.787,45.757,46.56,46.137,46.109z"
		/>
	<path fill="#FFFFFF" d="M63.507,48.107h-1.488v-4.129l0.072-2.316h-0.024l-2.196,6.445h-1.356l-2.184-6.445h-0.024l0.084,2.316
		v4.129h-1.5v-7.92h2.4l1.428,4.32l0.504,1.787h0.024l0.516-1.775l1.416-4.332h2.328V48.107z"/>
	<path fill="#FFFFFF" d="M74.871,46.175h-3.048l-0.648,1.932h-1.692l2.892-7.92h1.98l2.892,7.92h-1.716L74.871,46.175z
		 M74.463,44.951l-0.744-2.232l-0.36-1.199h-0.024l-0.336,1.176l-0.768,2.256H74.463z"/>
	<path fill="#FFFFFF" d="M89.163,41.218c0.68,0.688,1.02,1.664,1.02,2.928s-0.34,2.24-1.02,2.928c-0.68,0.689-1.64,1.033-2.88,1.033
		h-3.06v-7.92h3.06C87.523,40.187,88.483,40.531,89.163,41.218z M87.897,46.109c0.38-0.453,0.57-1.105,0.57-1.963
		c0-0.855-0.19-1.51-0.57-1.961c-0.38-0.453-0.946-0.678-1.698-0.678h-1.32v5.279h1.32C86.951,46.787,87.517,46.56,87.897,46.109z"
		/>
	<path fill="#FFFFFF" d="M102.759,46.775v1.332h-6.108v-7.92h5.94v1.332h-4.284v1.967h3.372v1.273h-3.372v2.016H102.759z"/>
	<path fill="#FFFFFF" d="M123.063,47.644c-0.593,0.389-1.3,0.582-2.124,0.582c-0.776,0-1.452-0.164-2.028-0.492
		c-0.575-0.328-1.019-0.797-1.325-1.41c-0.309-0.611-0.463-1.338-0.463-2.178s0.154-1.566,0.463-2.178
		c0.307-0.611,0.747-1.082,1.319-1.41c0.571-0.328,1.242-0.492,2.011-0.492c0.823,0,1.521,0.172,2.094,0.516
		c0.571,0.346,0.965,0.857,1.182,1.537l-1.5,0.637c-0.128-0.473-0.328-0.813-0.6-1.021c-0.272-0.207-0.641-0.311-1.104-0.311
		c-0.672,0-1.198,0.234-1.578,0.707s-0.569,1.145-0.569,2.016c0,0.873,0.184,1.545,0.551,2.016c0.369,0.473,0.889,0.709,1.561,0.709
		c0.968,0,1.576-0.469,1.824-1.404l1.523,0.457C124.067,46.683,123.655,47.257,123.063,47.644z"/>
	<path fill="#FFFFFF" d="M135.015,46.175h-3.049l-0.648,1.932h-1.691l2.893-7.92h1.979l2.892,7.92h-1.716L135.015,46.175z
		 M134.607,44.951l-0.744-2.232l-0.36-1.199h-0.024l-0.336,1.176l-0.768,2.256H134.607z"/>
	<path fill="#FFFFFF" d="M150.169,48.107h-1.895l-2.772-4.656l-0.685-1.332h-0.012l0.049,1.404v4.584h-1.488v-7.92h1.884
		l2.772,4.643l0.684,1.346h0.023l-0.049-1.404v-4.584h1.488V48.107z"/>
	<path fill="#FFFFFF" d="M162.974,41.218c0.682,0.688,1.021,1.664,1.021,2.928s-0.34,2.24-1.021,2.928
		c-0.68,0.689-1.639,1.033-2.879,1.033h-3.061v-7.92h3.061C161.335,40.187,162.294,40.531,162.974,41.218z M161.708,46.109
		c0.381-0.453,0.57-1.105,0.57-1.963c0-0.855-0.189-1.51-0.57-1.961c-0.379-0.453-0.945-0.678-1.697-0.678h-1.32v5.279h1.32
		C160.763,46.787,161.33,46.56,161.708,46.109z"/>
	<path fill="#FFFFFF" d="M176.294,46.775v1.332h-5.832v-7.92h1.656v6.588H176.294z"/>
	<path fill="#FFFFFF" d="M188.582,46.775v1.332h-6.107v-7.92h5.939v1.332h-4.283v1.967h3.371v1.273h-3.371v2.016H188.582z"/>
	<path fill="#FFFFFF" d="M199.658,40.433c0.527,0.244,0.992,0.629,1.393,1.158l-1.141,1.115c-0.207-0.432-0.484-0.754-0.828-0.967
		c-0.344-0.211-0.779-0.316-1.309-0.316c-0.479,0-0.85,0.09-1.109,0.27s-0.391,0.418-0.391,0.713c0,0.273,0.133,0.488,0.396,0.648
		s0.74,0.301,1.428,0.42c0.721,0.137,1.293,0.305,1.717,0.504c0.424,0.201,0.734,0.451,0.93,0.75
		c0.195,0.301,0.295,0.674,0.295,1.123c0,0.488-0.139,0.91-0.414,1.266c-0.277,0.355-0.66,0.629-1.152,0.822
		c-0.492,0.191-1.055,0.287-1.686,0.287c-0.873,0-1.586-0.121-2.143-0.365s-1.006-0.615-1.35-1.111l0.984-1.176
		c0.295,0.488,0.635,0.826,1.02,1.016c0.383,0.188,0.859,0.281,1.428,0.281c0.512,0,0.902-0.08,1.17-0.24s0.402-0.389,0.402-0.684
		c0-0.217-0.127-0.396-0.379-0.541c-0.252-0.143-0.701-0.279-1.35-0.408c-0.744-0.15-1.338-0.33-1.781-0.539
		c-0.445-0.207-0.768-0.465-0.967-0.768c-0.199-0.305-0.301-0.68-0.301-1.129c0-0.471,0.129-0.898,0.385-1.277
		c0.256-0.381,0.631-0.678,1.123-0.895c0.49-0.215,1.068-0.324,1.732-0.324C198.498,40.066,199.13,40.189,199.658,40.433z"/>
	<path fill="#FFFFFF" d="M57.309,63.775v1.332h-6.108v-7.92h5.94v1.332h-4.284v1.967h3.372v1.273h-3.372v2.016H57.309z"/>
	<path fill="#FFFFFF" d="M68.385,57.433c0.528,0.244,0.992,0.629,1.392,1.158l-1.14,1.115c-0.208-0.432-0.484-0.754-0.828-0.967
		c-0.344-0.211-0.78-0.316-1.308-0.316c-0.48,0-0.85,0.09-1.11,0.27c-0.26,0.18-0.39,0.418-0.39,0.713
		c0,0.273,0.132,0.488,0.396,0.648s0.74,0.301,1.428,0.42c0.72,0.137,1.292,0.305,1.716,0.504c0.424,0.201,0.734,0.451,0.93,0.75
		c0.196,0.301,0.294,0.674,0.294,1.123c0,0.488-0.138,0.91-0.414,1.266c-0.276,0.355-0.66,0.629-1.152,0.822
		c-0.492,0.191-1.054,0.287-1.686,0.287c-0.872,0-1.586-0.121-2.142-0.365c-0.556-0.244-1.006-0.615-1.35-1.111l0.984-1.176
		c0.296,0.488,0.636,0.826,1.02,1.016c0.384,0.188,0.86,0.281,1.428,0.281c0.512,0,0.902-0.08,1.17-0.24s0.402-0.389,0.402-0.684
		c0-0.217-0.126-0.396-0.378-0.541c-0.252-0.143-0.702-0.279-1.35-0.408c-0.744-0.15-1.338-0.33-1.782-0.539
		c-0.444-0.207-0.766-0.465-0.966-0.768c-0.2-0.305-0.3-0.68-0.3-1.129c0-0.471,0.128-0.898,0.384-1.277
		c0.256-0.381,0.63-0.678,1.122-0.895c0.492-0.215,1.07-0.324,1.734-0.324C67.225,57.066,67.857,57.189,68.385,57.433z"/>
	<path fill="#FFFFFF" d="M82.149,58.519h-2.652v6.588h-1.656v-6.588h-2.664v-1.332h6.972V58.519z"/>
	<path fill="#FFFFFF" d="M88.371,63.535c0.188,0.176,0.282,0.412,0.282,0.707c0,0.297-0.094,0.533-0.282,0.709
		s-0.442,0.264-0.762,0.264s-0.574-0.086-0.762-0.258c-0.188-0.172-0.282-0.41-0.282-0.715c0-0.303,0.094-0.541,0.282-0.713
		c0.188-0.172,0.442-0.258,0.762-0.258S88.183,63.359,88.371,63.535z"/>
	<path fill="#FFFFFF" d="M106.533,57.187v7.92h-1.608v-5.904c0-0.129,0.004-0.229,0.012-0.301c-0.288,0.264-0.598,0.488-0.93,0.672
		c-0.332,0.186-0.666,0.309-1.002,0.373l-0.216-1.393c0.368-0.039,0.81-0.205,1.326-0.498c0.516-0.291,0.874-0.582,1.074-0.869
		H106.533z"/>
	<path fill="#FFFFFF" d="M118.287,58.14c0.556,0.717,0.834,1.727,0.834,3.031c0,1.359-0.28,2.375-0.84,3.047
		c-0.561,0.672-1.36,1.008-2.4,1.008c-0.729,0-1.326-0.145-1.794-0.432s-0.821-0.729-1.062-1.32l1.523-0.648
		c0.096,0.361,0.242,0.631,0.438,0.811c0.197,0.18,0.498,0.27,0.906,0.27c0.601,0,1.039-0.23,1.314-0.695s0.414-1.133,0.414-2.004
		v-0.168h-0.048c-0.104,0.408-0.345,0.713-0.72,0.912c-0.377,0.199-0.805,0.299-1.285,0.299c-0.496,0-0.939-0.104-1.332-0.311
		c-0.392-0.209-0.701-0.504-0.93-0.889c-0.228-0.385-0.342-0.832-0.342-1.344c0-0.816,0.262-1.461,0.786-1.932
		c0.524-0.473,1.246-0.709,2.166-0.709C116.941,57.066,117.73,57.425,118.287,58.14z M114.896,58.759
		c-0.231,0.223-0.348,0.539-0.348,0.947c0,0.4,0.116,0.713,0.348,0.936c0.232,0.225,0.564,0.336,0.996,0.336
		c0.408,0,0.734-0.115,0.979-0.348s0.365-0.539,0.365-0.924c0-0.393-0.121-0.703-0.365-0.936s-0.57-0.348-0.979-0.348
		C115.46,58.423,115.128,58.535,114.896,58.759z"/>
	<path fill="#FFFFFF" d="M131.048,57.187v1.26c-0.959,0.959-1.647,1.98-2.063,3.061s-0.624,2.279-0.624,3.6h-1.656
		c0-2.504,0.896-4.693,2.688-6.564h-4.619v-1.355H131.048z"/>
	<path fill="#FFFFFF" d="M137.378,64.195c-0.531-0.688-0.798-1.705-0.798-3.049s0.267-2.359,0.798-3.047
		c0.532-0.689,1.322-1.033,2.37-1.033s1.838,0.344,2.37,1.033c0.531,0.688,0.798,1.703,0.798,3.047s-0.267,2.361-0.798,3.049
		c-0.532,0.688-1.322,1.031-2.37,1.031S137.911,64.882,137.378,64.195z M140.888,63.222c0.248-0.447,0.373-1.141,0.373-2.076
		s-0.125-1.627-0.373-2.076c-0.248-0.447-0.628-0.672-1.14-0.672c-0.513,0-0.892,0.225-1.14,0.672
		c-0.248,0.449-0.372,1.141-0.372,2.076s0.124,1.629,0.372,2.076c0.248,0.449,0.627,0.672,1.14,0.672
		C140.26,63.894,140.64,63.671,140.888,63.222z"/>
	<path fill="#FFFFFF" d="M150.71,63.535c0.188,0.176,0.283,0.412,0.283,0.707c0,0.297-0.096,0.533-0.283,0.709
		s-0.441,0.264-0.762,0.264s-0.574-0.086-0.762-0.258s-0.281-0.41-0.281-0.715c0-0.303,0.094-0.541,0.281-0.713
		s0.441-0.258,0.762-0.258S150.523,63.359,150.71,63.535z"/>
</g>
</svg>
